<mxfile host="app.diagrams.net" modified="2020-06-28T13:27:56.389Z" agent="5.0 (X11; Linux x86_64) AppleWebKit/537.36 (KHTML, like Gecko) Chrome/83.0.4103.61 Safari/537.36" etag="WdojxnrtNMZr25aWM1i-" version="13.3.5" type="github">
  <diagram id="3z9ya4Ewqij1RouaAyG5" name="Page-1">
    <mxGraphModel dx="683" dy="1602" grid="1" gridSize="10" guides="1" tooltips="1" connect="1" arrows="1" fold="1" page="1" pageScale="1" pageWidth="827" pageHeight="1169" math="0" shadow="0">
      <root>
        <mxCell id="0" />
        <mxCell id="1" parent="0" />
        <mxCell id="lMDbwuIr3GFBLvMX4M27-1" value="&lt;p style=&quot;margin: 4px 0px 0px ; text-align: center ; font-size: 14px&quot;&gt;&lt;b style=&quot;font-size: 14px&quot;&gt;&lt;font style=&quot;font-size: 14px&quot;&gt;User&lt;/font&gt;&lt;/b&gt;&lt;/p&gt;&lt;hr style=&quot;font-size: 14px&quot;&gt;&lt;p style=&quot;margin: 0px 0px 0px 4px ; font-size: 14px&quot;&gt;&lt;br&gt;&lt;/p&gt;&lt;p style=&quot;margin: 0px 0px 0px 4px ; font-size: 14px&quot;&gt;&lt;br style=&quot;font-size: 14px&quot;&gt;&lt;/p&gt;" style="verticalAlign=top;align=left;overflow=fill;fontSize=14;fontFamily=Helvetica;html=1;fillColor=#ffe6cc;strokeColor=#d79b00;" parent="1" vertex="1">
          <mxGeometry x="110" y="-640" width="160" height="80" as="geometry" />
        </mxCell>
        <mxCell id="lMDbwuIr3GFBLvMX4M27-2" value="&lt;p style=&quot;margin: 4px 0px 0px; text-align: center; font-size: 14px;&quot;&gt;&lt;b style=&quot;font-size: 14px;&quot;&gt;&lt;font style=&quot;font-size: 14px;&quot;&gt;Order&lt;/font&gt;&lt;/b&gt;&lt;/p&gt;&lt;hr style=&quot;font-size: 14px;&quot;&gt;&lt;p style=&quot;margin: 0px 0px 0px 4px; font-size: 14px;&quot;&gt;&lt;/p&gt;&lt;span style=&quot;font-size: 14px;&quot;&gt;&amp;nbsp;- date: Date&lt;br style=&quot;font-size: 14px;&quot;&gt;&amp;nbsp;- status: Boolean&lt;br style=&quot;font-size: 14px;&quot;&gt;&lt;/span&gt;" style="verticalAlign=top;align=left;overflow=fill;fontSize=14;fontFamily=Helvetica;html=1;fillColor=#f5f5f5;strokeColor=#666666;fontColor=#333333;" parent="1" vertex="1">
          <mxGeometry x="414" y="-660" width="140" height="80" as="geometry" />
        </mxCell>
        <mxCell id="lMDbwuIr3GFBLvMX4M27-3" value="" style="endArrow=none;html=1;endSize=12;startArrow=none;startSize=14;startFill=0;edgeStyle=orthogonalEdgeStyle;exitX=1;exitY=0.25;exitDx=0;exitDy=0;entryX=0;entryY=0.5;entryDx=0;entryDy=0;endFill=0;fontSize=14;" parent="1" source="lMDbwuIr3GFBLvMX4M27-1" target="lMDbwuIr3GFBLvMX4M27-2" edge="1">
          <mxGeometry relative="1" as="geometry">
            <mxPoint x="200" y="-460" as="sourcePoint" />
            <mxPoint x="200" y="-300" as="targetPoint" />
          </mxGeometry>
        </mxCell>
        <mxCell id="lMDbwuIr3GFBLvMX4M27-4" value="make" style="text;html=1;align=center;verticalAlign=middle;resizable=0;points=[];autosize=1;fontSize=14;" parent="1" vertex="1">
          <mxGeometry x="300" y="-640" width="50" height="20" as="geometry" />
        </mxCell>
        <mxCell id="lMDbwuIr3GFBLvMX4M27-5" value="0..n" style="resizable=0;html=1;align=left;verticalAlign=top;labelBackgroundColor=#ffffff;fontSize=14;" parent="1" connectable="0" vertex="1">
          <mxGeometry x="380" y="-650" as="geometry" />
        </mxCell>
        <mxCell id="lMDbwuIr3GFBLvMX4M27-6" value="1" style="resizable=0;html=1;align=left;verticalAlign=top;labelBackgroundColor=#ffffff;fontSize=14;" parent="1" connectable="0" vertex="1">
          <mxGeometry x="270" y="-650" as="geometry" />
        </mxCell>
        <mxCell id="lMDbwuIr3GFBLvMX4M27-7" value="&lt;p style=&quot;margin: 4px 0px 0px ; text-align: center ; font-size: 14px&quot;&gt;&lt;b style=&quot;font-size: 14px&quot;&gt;&lt;font style=&quot;font-size: 14px&quot;&gt;Session&lt;/font&gt;&lt;/b&gt;&lt;/p&gt;&lt;hr style=&quot;font-size: 14px&quot;&gt;&lt;p style=&quot;margin: 0px 0px 0px 4px ; font-size: 14px&quot;&gt;&lt;/p&gt;&lt;span style=&quot;font-size: 14px&quot;&gt;&amp;nbsp;&lt;br&gt;&lt;br style=&quot;font-size: 14px&quot;&gt;&lt;/span&gt;" style="verticalAlign=top;align=left;overflow=fill;fontSize=14;fontFamily=Helvetica;html=1;fillColor=#ffe6cc;strokeColor=#d79b00;" parent="1" vertex="1">
          <mxGeometry x="414" y="-430" width="140" height="50" as="geometry" />
        </mxCell>
        <mxCell id="lMDbwuIr3GFBLvMX4M27-8" value="" style="endArrow=none;html=1;endSize=12;startArrow=none;startSize=14;startFill=0;edgeStyle=orthogonalEdgeStyle;exitX=0.5;exitY=0;exitDx=0;exitDy=0;entryX=0.5;entryY=1;entryDx=0;entryDy=0;endFill=0;fontSize=14;" parent="1" source="lMDbwuIr3GFBLvMX4M27-7" target="lMDbwuIr3GFBLvMX4M27-2" edge="1">
          <mxGeometry relative="1" as="geometry">
            <mxPoint x="280" y="-610" as="sourcePoint" />
            <mxPoint x="424" y="-610" as="targetPoint" />
          </mxGeometry>
        </mxCell>
        <mxCell id="lMDbwuIr3GFBLvMX4M27-9" value="1..n" style="resizable=0;html=1;align=left;verticalAlign=top;labelBackgroundColor=#ffffff;fontSize=14;" parent="1" connectable="0" vertex="1">
          <mxGeometry x="370" y="-660" as="geometry">
            <mxPoint x="82" y="200" as="offset" />
          </mxGeometry>
        </mxCell>
        <mxCell id="lMDbwuIr3GFBLvMX4M27-10" value="1..n" style="resizable=0;html=1;align=left;verticalAlign=top;labelBackgroundColor=#ffffff;fontSize=14;" parent="1" connectable="0" vertex="1">
          <mxGeometry x="450" y="-584" as="geometry" />
        </mxCell>
        <mxCell id="hqtOsCALDi3WceIFyl6h-1" value="La classe mère de User est définie dans le ms User" style="shape=note;whiteSpace=wrap;html=1;backgroundOutline=1;darkOpacity=0.05;fillColor=#fff2cc;strokeColor=#d6b656;" vertex="1" parent="1">
          <mxGeometry x="136" y="-550" width="108" height="106" as="geometry" />
        </mxCell>
        <mxCell id="hqtOsCALDi3WceIFyl6h-2" value="La classe mère de session est définie dans le ms session" style="shape=note;whiteSpace=wrap;html=1;backgroundOutline=1;darkOpacity=0.05;fillColor=#fff2cc;strokeColor=#d6b656;" vertex="1" parent="1">
          <mxGeometry x="430" y="-360" width="108" height="106" as="geometry" />
        </mxCell>
      </root>
    </mxGraphModel>
  </diagram>
</mxfile>
